<?xml version="1.0" encoding="UTF-8"?>
<svg id="Capa_1" data-name="Capa 1" xmlns="http://www.w3.org/2000/svg" viewBox="0 0 1898 79.05">
  <defs>
    <style>
      .cls-1 {
        fill: #fff;
      }

      .cls-2 {
        fill: #24303b;
      }

      .cls-3 {
        fill: #ef862c;
      }
    </style>
  </defs>
  <path class="cls-3" d="M673.26,0H0v79.05h117.27c10.08,0,19.71-4.13,26.61-11.42l37.28-35.96c5.22-5.51,12.5-8.63,20.12-8.63h471.97V0Z"/>
  <rect class="cls-3" x="673.26" y="0" width="1224.74" height="23.03"/>
  <g>
    <g>
      <path class="cls-2" d="M80.18,61.55v1.87h-7.63v-10.98h7.49v1.87h-5.35v2.65h4.63v1.73h-4.63v2.86h5.49Z"/>
      <path class="cls-2" d="M89.2,63.42h-2.07v-4.55c0-.65-.11-1.12-.34-1.42-.23-.3-.54-.45-.94-.45-.21,0-.42.04-.63.12-.22.08-.42.2-.61.35-.19.15-.36.33-.52.53-.15.21-.27.43-.34.68v4.73h-2.07v-8.11h1.87v1.5c.3-.52.73-.92,1.3-1.21.57-.29,1.21-.43,1.92-.43.5,0,.92.09,1.24.28.32.19.57.43.74.73.18.3.3.64.36,1.02.07.38.1.77.1,1.16v5.06Z"/>
      <path class="cls-2" d="M94.75,63.57c-.65,0-1.24-.11-1.76-.33-.53-.22-.97-.52-1.35-.91-.37-.38-.66-.82-.86-1.33-.2-.51-.3-1.04-.3-1.59s.1-1.12.29-1.63c.2-.51.48-.96.85-1.35.37-.39.82-.69,1.35-.92.53-.23,1.13-.34,1.79-.34s1.25.11,1.77.34c.52.23.96.53,1.33.91.37.38.64.83.84,1.33.19.51.29,1.03.29,1.58,0,.13,0,.26,0,.39,0,.12-.02.23-.04.31h-6.27c.03.32.11.6.23.85.12.25.28.46.48.63.2.18.42.31.67.4.25.09.51.14.77.14.41,0,.8-.1,1.17-.3.37-.2.62-.47.75-.8l1.78.5c-.3.62-.78,1.13-1.43,1.52-.65.4-1.44.6-2.34.6ZM96.86,58.68c-.05-.61-.28-1.1-.67-1.46-.4-.37-.88-.55-1.45-.55-.28,0-.54.05-.78.15-.24.1-.46.23-.64.41-.19.18-.34.39-.46.63-.12.25-.19.52-.21.82h4.21Z"/>
      <path class="cls-2" d="M105.09,57.11c-.63.01-1.19.13-1.69.36-.49.23-.85.58-1.07,1.04v4.9h-2.07v-8.11h1.9v1.73c.28-.56.64-1.01,1.09-1.35.45-.34.92-.51,1.42-.51.11,0,.2,0,.26,0,.06,0,.11.01.16.02v1.89Z"/>
      <path class="cls-2" d="M109.42,63.47c-.54,0-1.03-.11-1.48-.32-.45-.22-.83-.51-1.15-.89-.32-.38-.57-.81-.74-1.31-.18-.5-.26-1.02-.26-1.58,0-.59.09-1.13.28-1.64.19-.51.44-.95.77-1.33s.72-.68,1.18-.9c.46-.22.97-.32,1.52-.32.64,0,1.2.14,1.67.43.47.28.86.66,1.16,1.14v-1.42h1.81v7.72c0,.6-.11,1.13-.33,1.61-.22.47-.53.88-.94,1.21-.4.33-.88.58-1.42.76-.55.18-1.14.26-1.79.26-.9,0-1.65-.15-2.25-.44-.6-.29-1.12-.71-1.55-1.25l1.13-1.1c.31.38.7.68,1.17.9.47.22.97.32,1.51.32.32,0,.63-.04.92-.13.29-.09.55-.22.77-.41.22-.19.4-.42.53-.71.13-.29.19-.63.19-1.02v-1.02c-.27.46-.64.82-1.13,1.08-.48.25-1.01.38-1.56.38ZM110.13,61.81c.23,0,.44-.04.65-.11.21-.07.39-.17.56-.29.17-.12.32-.27.46-.43.13-.16.24-.34.31-.53v-1.93c-.19-.47-.47-.86-.87-1.14-.39-.29-.8-.43-1.24-.43-.32,0-.61.07-.87.21-.26.14-.49.32-.67.56-.19.23-.33.5-.43.8-.1.3-.15.61-.15.93s.06.64.17.93c.11.29.27.54.47.76.2.22.44.39.71.51.27.12.57.19.89.19Z"/>
      <path class="cls-2" d="M116.15,65c.19.05.36.09.51.11.15.02.29.03.4.03.13,0,.25-.02.36-.07.1-.05.2-.13.3-.26.1-.12.2-.3.29-.52.1-.22.2-.51.32-.87l-3.22-8.11h2.13l2.21,6.31,1.95-6.31h1.95l-3.42,9.72c-.22.62-.56,1.1-1.04,1.43-.47.34-1.03.5-1.66.5-.36,0-.73-.06-1.1-.17v-1.79Z"/>
    </g>
    <path class="cls-2" d="M31.5,12.08h3.61c.16,0,.29.13.29.29v12.63c0,.16-.13.28-.28.28h-3.61c-.16,0-.28-.13-.28-.28v-12.64c0-.16.13-.28.28-.28Z"/>
    <path class="cls-1" d="M35.2,45.62c-.08.17-.23.29-.42.29h-2.95c-.23,0-.33-.09-.41-.29l-7.85-20.15c-.05-.09-.05-.18-.05-.28,0-.23.14-.37.47-.37h3.46c.19,0,.35.09.42.28l5.4,15.32,5.49-15.32c.08-.19.17-.28.41-.28h3.46c.31,0,.46.14.46.37,0,.1,0,.19-.05.28l-7.83,20.15Z"/>
    <path class="cls-1" d="M61.13,36.06h-11.54c-.32,0-.45.14-.45.47v1.87c0,2.3,1.79,4.22,4.14,4.22,1.11,0,2.03-.42,2.54-1.03,1.02-1.22,1.42-1.97,1.71-1.97.08,0,.18.05.27.1l2.9,1.49c.19.1.28.19.28.33,0,.33-.56,1.55-1.94,2.86-1.38,1.31-3.32,1.96-5.77,1.96-5.03,0-8.3-3.18-8.3-7.97v-6.08c0-4.26,3.69-7.97,8.3-7.97s8.3,3.7,8.3,7.97v3.28c0,.33-.14.47-.46.47M57.44,31.99c0-2.02-1.98-3.89-4.16-3.89s-4.14,1.92-4.14,3.98c0,.51.04.71.45.71h7.38c.42,0,.46-.23.46-.8"/>
    <path class="cls-1" d="M81.56,41.55c0,.33-.55,1.55-1.93,2.86-1.39,1.31-3.32,1.96-5.77,1.96-5.03,0-8.3-3.18-8.3-7.97v-6.08c0-4.78,3.27-7.97,8.3-7.97,1.48,0,2.77.28,3.92.8,2.45,1.12,3.73,2.95,3.73,3.93,0,.18-.08.28-.27.37l-2.95,1.5c-.1.05-.18.05-.23.05-.19,0-.24-.09-.37-.27-1.11-1.54-1.93-2.63-3.83-2.63-2.35,0-4.16,1.92-4.16,4.22v6.08c0,2.3,1.8,4.22,4.16,4.22,1.1,0,2.03-.42,2.54-1.03,1.02-1.22,1.42-1.97,1.71-1.97.08,0,.18.05.28.1l2.9,1.49c.19.1.27.19.27.33"/>
    <path class="cls-1" d="M94.35,46.33c-3.79,0-7.44-3.24-7.44-7.93v-9.37c0-.33-.13-.47-.45-.47h-2.53c-.33,0-.46-.14-.46-.47l.09-1.65,5.3-5.72.33-.14h1.42c.32,0,.45.14.45.47v3.28c0,.33.14.47.47.47h3.23c.33,0,.46.14.46.47v2.81c0,.33-.13.47-.46.47h-3.23c-.32,0-.47.14-.47.47v9.37c0,.99.33,1.83,1.02,2.73.42.52,1.38.84,2.77,1.45.24.1.37.18.37.47v2.81c0,.43-.23.48-.87.48"/>
    <path class="cls-1" d="M106.85,46.37c-5.03,0-8.31-3.18-8.31-7.97v-6.08c0-4.78,3.28-7.97,8.31-7.97s8.3,3.22,8.3,7.97v6.08c0,4.79-3.27,7.97-8.3,7.97M111,32.32c0-2.3-1.84-4.22-4.15-4.22s-4.16,1.92-4.16,4.22v6.08c0,2.3,1.81,4.22,4.16,4.22s4.15-1.92,4.15-4.22v-6.08Z"/>
    <path class="cls-1" d="M130.33,29.41c-.42,0-1.11-.33-2.26-.33-2.59,0-4.15,1.58-4.15,4.17v12.19c0,.33-.13.47-.47.47h-3.22c-.32,0-.47-.14-.47-.47v-20.15c0-.33.14-.47.47-.47h2.76c.33,0,.46.14.46.47v1.49c0,.38.18.57.42.57.47,0,1.84-2.53,4.33-2.53,1.76,0,2.4.04,2.4.61v3.52c0,.28-.09.47-.28.47"/>
  </g>
</svg>