<?xml version="1.0" encoding="UTF-8"?>
<svg id="Capa_1" data-name="Capa 1" xmlns="http://www.w3.org/2000/svg" viewBox="0 0 400 32.12">
  <defs>
    <style>
      .cls-1 {
        fill: #fff;
      }

      .cls-2 {
        fill: #24303b;
      }

      .cls-3 {
        fill: #ef862c;
      }
    </style>
  </defs>
  <path class="cls-3" d="M243.16,0H.94v28.44h42.19c3.63,0,7.09-1.49,9.57-4.11l13.41-12.94c1.88-1.98,4.5-3.11,7.24-3.11h169.8V0Z"/>
  <rect class="cls-3" x="234.7" y="0" width="165.3" height="8.29"/>
  <g>
    <g>
      <path class="cls-2" d="M29.79,22.14v.67h-2.74v-3.95h2.69v.67h-1.93v.95h1.66v.62h-1.66v1.03h1.98Z"/>
      <path class="cls-2" d="M33.03,22.82h-.75v-1.64c0-.23-.04-.4-.12-.51-.08-.11-.19-.16-.34-.16-.07,0-.15.01-.23.04-.08.03-.15.07-.22.13-.07.05-.13.12-.19.19-.06.07-.1.16-.12.24v1.7h-.75v-2.92h.67v.54c.11-.19.26-.33.47-.43.2-.1.43-.16.69-.16.18,0,.33.03.45.1.11.07.2.15.27.26.06.11.11.23.13.37.02.14.04.28.04.42v1.82Z"/>
      <path class="cls-2" d="M35.03,22.87c-.23,0-.45-.04-.63-.12-.19-.08-.35-.19-.48-.33-.13-.14-.24-.3-.31-.48-.07-.18-.11-.37-.11-.57s.04-.4.11-.59c.07-.18.17-.35.31-.48.13-.14.3-.25.49-.33.19-.08.41-.12.64-.12s.45.04.64.12c.19.08.35.19.48.33.13.14.23.3.3.48.07.18.1.37.1.57,0,.05,0,.09,0,.14,0,.04,0,.08-.01.11h-2.25c.01.12.04.22.08.31.04.09.1.17.17.23.07.06.15.11.24.14.09.03.18.05.28.05.15,0,.29-.04.42-.11.13-.07.22-.17.27-.29l.64.18c-.11.22-.28.41-.51.55-.24.14-.52.21-.84.21ZM35.79,21.11c-.02-.22-.1-.39-.24-.53-.14-.13-.32-.2-.52-.2-.1,0-.19.02-.28.05-.09.04-.16.08-.23.15-.07.06-.12.14-.16.23-.04.09-.07.19-.08.3h1.51Z"/>
      <path class="cls-2" d="M38.75,20.55c-.23,0-.43.05-.61.13-.18.08-.31.21-.38.38v1.76h-.75v-2.92h.68v.62c.1-.2.23-.36.39-.48.16-.12.33-.18.51-.18.04,0,.07,0,.09,0,.02,0,.04,0,.06,0v.68Z"/>
      <path class="cls-2" d="M40.31,22.83c-.19,0-.37-.04-.53-.12-.16-.08-.3-.18-.41-.32-.11-.14-.2-.29-.27-.47-.06-.18-.09-.37-.09-.57,0-.21.03-.41.1-.59.07-.18.16-.34.28-.48s.26-.24.43-.32c.17-.08.35-.12.55-.12.23,0,.43.05.6.15.17.1.31.24.42.41v-.51h.65v2.78c0,.22-.04.41-.12.58-.08.17-.19.32-.34.43-.14.12-.32.21-.51.27-.2.06-.41.09-.65.09-.32,0-.59-.05-.81-.16-.22-.11-.4-.26-.56-.45l.41-.4c.11.14.25.24.42.32.17.08.35.12.54.12.11,0,.23-.02.33-.05.11-.03.2-.08.28-.15.08-.07.14-.15.19-.26.05-.1.07-.23.07-.37v-.37c-.1.17-.23.3-.41.39-.17.09-.36.14-.56.14ZM40.56,22.24c.08,0,.16-.01.23-.04.07-.03.14-.06.2-.11.06-.04.12-.1.16-.16.05-.06.09-.12.11-.19v-.7c-.07-.17-.17-.31-.31-.41-.14-.1-.29-.16-.45-.16-.11,0-.22.03-.31.08-.09.05-.18.12-.24.2-.07.08-.12.18-.15.29-.04.11-.05.22-.05.33s.02.23.06.33c.04.1.1.19.17.27.07.08.16.14.26.18.1.04.21.07.32.07Z"/>
      <path class="cls-2" d="M42.73,23.38c.07.02.13.03.18.04.06,0,.1.01.14.01.05,0,.09,0,.13-.03.04-.02.07-.05.11-.09.04-.04.07-.11.11-.19.04-.08.07-.18.11-.31l-1.16-2.92h.77l.8,2.27.7-2.27h.7l-1.23,3.5c-.08.22-.2.39-.37.51-.17.12-.37.18-.6.18-.13,0-.26-.02-.4-.06v-.65Z"/>
    </g>
    <path class="cls-2" d="M12.27,4.35h1.3c.06,0,.1.05.1.1v4.54c0,.06-.05.1-.1.1h-1.3c-.06,0-.1-.05-.1-.1v-4.55c0-.06.05-.1.1-.1Z"/>
    <path class="cls-1" d="M13.61,16.41c-.03.06-.08.1-.15.1h-1.06c-.08,0-.12-.03-.15-.1l-2.82-7.25s-.02-.06-.02-.1c0-.08.05-.13.17-.13h1.25c.07,0,.13.03.15.1l1.94,5.51,1.98-5.51c.03-.07.06-.1.15-.1h1.25c.11,0,.16.05.16.13,0,.04,0,.07-.02.1l-2.82,7.25Z"/>
    <path class="cls-1" d="M22.93,12.97h-4.15c-.12,0-.16.05-.16.17v.67c0,.83.65,1.52,1.49,1.52.4,0,.73-.15.92-.37.37-.44.51-.71.61-.71.03,0,.07.02.1.04l1.04.54c.07.03.1.07.1.12,0,.12-.2.56-.7,1.03-.5.47-1.19.71-2.08.71-1.81,0-2.99-1.14-2.99-2.87v-2.19c0-1.53,1.33-2.87,2.99-2.87s2.99,1.33,2.99,2.87v1.18c0,.12-.05.17-.16.17M21.6,11.51c0-.73-.71-1.4-1.49-1.4s-1.49.69-1.49,1.43c0,.18.02.25.16.25h2.66c.15,0,.17-.08.17-.29"/>
    <path class="cls-1" d="M30.28,14.95c0,.12-.2.56-.69,1.03-.5.47-1.19.71-2.08.71-1.81,0-2.99-1.14-2.99-2.87v-2.19c0-1.72,1.18-2.87,2.99-2.87.53,0,1,.1,1.41.29.88.4,1.34,1.06,1.34,1.42,0,.06-.03.1-.1.13l-1.06.54s-.07.02-.08.02c-.07,0-.09-.03-.13-.1-.4-.56-.7-.95-1.38-.95-.85,0-1.49.69-1.49,1.52v2.19c0,.83.65,1.52,1.49,1.52.4,0,.73-.15.91-.37.37-.44.51-.71.61-.71.03,0,.07.02.1.04l1.04.54c.07.03.1.07.1.12"/>
    <path class="cls-1" d="M34.89,16.67c-1.36,0-2.68-1.16-2.68-2.85v-3.37c0-.12-.05-.17-.16-.17h-.91c-.12,0-.17-.05-.17-.17l.03-.59,1.91-2.06.12-.05h.51c.12,0,.16.05.16.17v1.18c0,.12.05.17.17.17h1.16c.12,0,.17.05.17.17v1.01c0,.12-.05.17-.17.17h-1.16c-.12,0-.17.05-.17.17v3.37c0,.36.12.66.37.98.15.19.5.3,1,.52.09.03.13.07.13.17v1.01c0,.15-.08.17-.31.17"/>
    <path class="cls-1" d="M39.38,16.68c-1.81,0-2.99-1.14-2.99-2.87v-2.19c0-1.72,1.18-2.87,2.99-2.87s2.99,1.16,2.99,2.87v2.19c0,1.72-1.18,2.87-2.99,2.87M40.88,11.63c0-.83-.66-1.52-1.49-1.52s-1.5.69-1.5,1.52v2.19c0,.83.65,1.52,1.5,1.52s1.49-.69,1.49-1.52v-2.19Z"/>
    <path class="cls-1" d="M47.83,10.58c-.15,0-.4-.12-.81-.12-.93,0-1.49.57-1.49,1.5v4.38c0,.12-.05.17-.17.17h-1.16c-.12,0-.17-.05-.17-.17v-7.25c0-.12.05-.17.17-.17h.99c.12,0,.17.05.17.17v.54c0,.14.07.2.15.2.17,0,.66-.91,1.56-.91.63,0,.86.01.86.22v1.27c0,.1-.03.17-.1.17"/>
  </g>
</svg>